<svg width="124" height="33" viewBox="0 0 124 33" fill="none" xmlns="http://www.w3.org/2000/svg">
<path d="M36 32H53.777" stroke="#0E63F4" stroke-width="0.635"/>
<path d="M42.6864 3.09091H44.9929V10.1754C44.9929 10.9709 44.8029 11.6669 44.4229 12.2635C44.0465 12.8601 43.5192 13.3253 42.8409 13.6591C42.1626 13.9893 41.3725 14.1545 40.4705 14.1545C39.565 14.1545 38.7731 13.9893 38.0948 13.6591C37.4165 13.3253 36.8892 12.8601 36.5128 12.2635C36.1364 11.6669 35.9482 10.9709 35.9482 10.1754V3.09091H38.2546V9.97834C38.2546 10.3938 38.3452 10.7631 38.5263 11.0863C38.7109 11.4094 38.9702 11.6634 39.304 11.848C39.6378 12.0327 40.0266 12.125 40.4705 12.125C40.918 12.125 41.3068 12.0327 41.6371 11.848C41.9709 11.6634 42.2283 11.4094 42.4094 11.0863C42.5941 10.7631 42.6864 10.3938 42.6864 9.97834V3.09091ZM52.8085 6.22834C52.7659 5.79865 52.583 5.46484 52.2599 5.22692C51.9367 4.98899 51.4981 4.87003 50.9442 4.87003C50.5677 4.87003 50.2499 4.9233 49.9907 5.02983C49.7314 5.13281 49.5326 5.27663 49.3941 5.46129C49.2591 5.64595 49.1917 5.85547 49.1917 6.08984C49.1846 6.28516 49.2254 6.45561 49.3142 6.60121C49.4065 6.7468 49.5326 6.87287 49.6924 6.9794C49.8522 7.08239 50.0368 7.17294 50.2464 7.25107C50.4559 7.32564 50.6796 7.38956 50.9175 7.44283L51.8976 7.6772C52.3735 7.78374 52.8103 7.92578 53.208 8.10334C53.6057 8.28089 53.9502 8.49929 54.2414 8.75852C54.5326 9.01776 54.7581 9.32315 54.9179 9.67472C55.0812 10.0263 55.1647 10.4293 55.1682 10.8839C55.1647 11.5515 54.9942 12.1303 54.6569 12.6204C54.3231 13.1069 53.8401 13.4851 53.208 13.755C52.5795 14.0213 51.8213 14.1545 50.9335 14.1545C50.0528 14.1545 49.2858 14.0195 48.6324 13.7496C47.9825 13.4798 47.4747 13.0803 47.1089 12.5511C46.7467 12.0185 46.5567 11.3597 46.539 10.5749H48.7709C48.7957 10.9407 48.9005 11.2461 49.0851 11.4911C49.2733 11.7326 49.5237 11.9155 49.8362 12.0398C50.1523 12.1605 50.5091 12.2209 50.9069 12.2209C51.2975 12.2209 51.6366 12.1641 51.9243 12.0504C52.2155 11.9368 52.441 11.7788 52.6008 11.5763C52.7606 11.3739 52.8405 11.1413 52.8405 10.8786C52.8405 10.6335 52.7677 10.4276 52.6221 10.2607C52.48 10.0937 52.2705 9.9517 51.9935 9.83452C51.7201 9.71733 51.3845 9.6108 50.9868 9.51491L49.7989 9.21662C48.8792 8.9929 48.153 8.64311 47.6203 8.16726C47.0876 7.69141 46.8231 7.05043 46.8266 6.24432C46.8231 5.58381 46.9988 5.00675 47.354 4.51314C47.7126 4.01953 48.2045 3.63423 48.8295 3.35724C49.4545 3.08026 50.1647 2.94176 50.9601 2.94176C51.7698 2.94176 52.4765 3.08026 53.0802 3.35724C53.6874 3.63423 54.1597 4.01953 54.4971 4.51314C54.8344 5.00675 55.0084 5.57848 55.0191 6.22834H52.8085ZM56.7196 14V3.09091H64.0705V4.99254H59.0261V7.59197H63.6923V9.49361H59.0261V12.0984H64.0918V14H56.7196ZM65.9042 14V3.09091H70.2082C71.032 3.09091 71.7352 3.23828 72.3176 3.53303C72.9035 3.82422 73.3492 4.23793 73.6546 4.77415C73.9635 5.30682 74.118 5.93359 74.118 6.65447C74.118 7.37891 73.9617 8.00213 73.6492 8.52415C73.3367 9.04261 72.884 9.44034 72.2909 9.71733C71.7014 9.99432 70.9877 10.1328 70.1496 10.1328H67.2678V8.27912H69.7767C70.2171 8.27912 70.5828 8.21875 70.874 8.09801C71.1652 7.97727 71.3818 7.79616 71.5239 7.55469C71.6695 7.31321 71.7423 7.01314 71.7423 6.65447C71.7423 6.29226 71.6695 5.98686 71.5239 5.73828C71.3818 5.4897 71.1634 5.30149 70.8687 5.17365C70.5775 5.04226 70.21 4.97656 69.7661 4.97656H68.2107V14H65.9042ZM71.7955 9.03551L74.5068 14H71.9607L69.308 9.03551H71.7955ZM77.4259 3.09091L80.0626 11.3793H80.1638L82.8058 3.09091H85.3627L81.602 14H78.6297L74.8637 3.09091H77.4259ZM86.6757 14V3.09091H94.0265V4.99254H88.9822V7.59197H93.6483V9.49361H88.9822V12.0984H94.0479V14H86.6757ZM95.8603 14V3.09091H100.164C100.988 3.09091 101.691 3.23828 102.274 3.53303C102.86 3.82422 103.305 4.23793 103.611 4.77415C103.92 5.30682 104.074 5.93359 104.074 6.65447C104.074 7.37891 103.918 8.00213 103.605 8.52415C103.293 9.04261 102.84 9.44034 102.247 9.71733C101.657 9.99432 100.944 10.1328 100.106 10.1328H97.2239V8.27912H99.7328C100.173 8.27912 100.539 8.21875 100.83 8.09801C101.121 7.97727 101.338 7.79616 101.48 7.55469C101.626 7.31321 101.698 7.01314 101.698 6.65447C101.698 6.29226 101.626 5.98686 101.48 5.73828C101.338 5.4897 101.119 5.30149 100.825 5.17365C100.534 5.04226 100.166 4.97656 99.7221 4.97656H98.1667V14H95.8603ZM101.752 9.03551L104.463 14H101.917L99.264 9.03551H101.752ZM111.622 6.22834C111.579 5.79865 111.396 5.46484 111.073 5.22692C110.75 4.98899 110.312 4.87003 109.758 4.87003C109.381 4.87003 109.063 4.9233 108.804 5.02983C108.545 5.13281 108.346 5.27663 108.208 5.46129C108.073 5.64595 108.005 5.85547 108.005 6.08984C107.998 6.28516 108.039 6.45561 108.128 6.60121C108.22 6.7468 108.346 6.87287 108.506 6.9794C108.666 7.08239 108.85 7.17294 109.06 7.25107C109.269 7.32564 109.493 7.38956 109.731 7.44283L110.711 7.6772C111.187 7.78374 111.624 7.92578 112.021 8.10334C112.419 8.28089 112.764 8.49929 113.055 8.75852C113.346 9.01776 113.572 9.32315 113.731 9.67472C113.895 10.0263 113.978 10.4293 113.982 10.8839C113.978 11.5515 113.808 12.1303 113.47 12.6204C113.137 13.1069 112.654 13.4851 112.021 13.755C111.393 14.0213 110.635 14.1545 109.747 14.1545C108.866 14.1545 108.099 14.0195 107.446 13.7496C106.796 13.4798 106.288 13.0803 105.922 12.5511C105.56 12.0185 105.37 11.3597 105.352 10.5749H107.584C107.609 10.9407 107.714 11.2461 107.899 11.4911C108.087 11.7326 108.337 11.9155 108.65 12.0398C108.966 12.1605 109.323 12.2209 109.72 12.2209C110.111 12.2209 110.45 12.1641 110.738 12.0504C111.029 11.9368 111.254 11.7788 111.414 11.5763C111.574 11.3739 111.654 11.1413 111.654 10.8786C111.654 10.6335 111.581 10.4276 111.436 10.2607C111.294 10.0937 111.084 9.9517 110.807 9.83452C110.534 9.71733 110.198 9.6108 109.8 9.51491L108.612 9.21662C107.693 8.9929 106.966 8.64311 106.434 8.16726C105.901 7.69141 105.637 7.05043 105.64 6.24432C105.637 5.58381 105.812 5.00675 106.167 4.51314C106.526 4.01953 107.018 3.63423 107.643 3.35724C108.268 3.08026 108.978 2.94176 109.774 2.94176C110.583 2.94176 111.29 3.08026 111.894 3.35724C112.501 3.63423 112.973 4.01953 113.311 4.51314C113.648 5.00675 113.822 5.57848 113.833 6.22834H111.622ZM115.533 14V3.09091H122.884V4.99254H117.84V7.59197H122.506V9.49361H117.84V12.0984H122.905V14H115.533Z" fill="#0E63F4"/>
<path d="M39.6435 20.9091C39.6115 20.6392 39.4819 20.4297 39.2546 20.2805C39.0273 20.1314 38.7486 20.0568 38.4183 20.0568C38.1768 20.0568 37.9656 20.0959 37.7844 20.174C37.6051 20.2521 37.4648 20.3596 37.3636 20.4963C37.2642 20.633 37.2145 20.7884 37.2145 20.9624C37.2145 21.108 37.2491 21.2331 37.3184 21.3379C37.3894 21.4409 37.4799 21.527 37.59 21.5962C37.7001 21.6637 37.8155 21.7196 37.9363 21.764C38.057 21.8066 38.168 21.8413 38.2692 21.8679L38.8232 22.017C38.9652 22.0543 39.1232 22.1058 39.2972 22.1715C39.473 22.2372 39.6408 22.3269 39.8006 22.4405C39.9622 22.5524 40.0953 22.6962 40.2001 22.872C40.3049 23.0478 40.3572 23.2635 40.3572 23.5192C40.3572 23.8139 40.28 24.0803 40.1255 24.3182C39.9728 24.5561 39.7491 24.7452 39.4544 24.8855C39.1614 25.0257 38.8054 25.0959 38.3864 25.0959C37.9957 25.0959 37.6575 25.0328 37.3716 24.9068C37.0875 24.7807 36.8638 24.6049 36.7005 24.3794C36.5389 24.1539 36.4474 23.892 36.4261 23.5938H37.108C37.1257 23.7997 37.195 23.9702 37.3157 24.1051C37.4382 24.2383 37.5927 24.3377 37.7791 24.4034C37.9673 24.4673 38.1697 24.4993 38.3864 24.4993C38.6385 24.4993 38.8649 24.4585 39.0655 24.3768C39.2662 24.2933 39.4251 24.1779 39.5423 24.0305C39.6594 23.8814 39.718 23.7074 39.718 23.5085C39.718 23.3274 39.6674 23.18 39.5662 23.0664C39.465 22.9528 39.3319 22.8604 39.1667 22.7894C39.0016 22.7184 38.8232 22.6562 38.6314 22.603L37.9602 22.4112C37.5341 22.2887 37.1967 22.1138 36.9482 21.8865C36.6996 21.6593 36.5753 21.3619 36.5753 20.9943C36.5753 20.6889 36.6578 20.4226 36.823 20.1953C36.9899 19.9663 37.2136 19.7887 37.4941 19.6626C37.7765 19.5348 38.0916 19.4709 38.4396 19.4709C38.7912 19.4709 39.1037 19.5339 39.3771 19.66C39.6506 19.7843 39.8672 19.9547 40.027 20.1713C40.1886 20.388 40.2738 20.6339 40.2827 20.9091H39.6435ZM43.1371 20.9091V21.4418H41.0171V20.9091H43.1371ZM41.635 19.929H42.2635V23.8281C42.2635 24.0057 42.2893 24.1388 42.3408 24.2276C42.394 24.3146 42.4615 24.3732 42.5432 24.4034C42.6266 24.4318 42.7145 24.446 42.8069 24.446C42.8761 24.446 42.9329 24.4425 42.9773 24.4354C43.0217 24.4265 43.0572 24.4194 43.0839 24.4141L43.2117 24.9787C43.1691 24.9947 43.1096 25.0107 43.0332 25.0266C42.9569 25.0444 42.8601 25.0533 42.7429 25.0533C42.5654 25.0533 42.3914 25.0151 42.2209 24.9387C42.0522 24.8624 41.912 24.7461 41.8001 24.5898C41.69 24.4336 41.635 24.2365 41.635 23.9986V19.929ZM44.0826 25V20.9091H44.6899V21.527H44.7325C44.807 21.3246 44.942 21.1603 45.1373 21.0343C45.3326 20.9082 45.5528 20.8452 45.7978 20.8452C45.844 20.8452 45.9017 20.8461 45.9709 20.8478C46.0402 20.8496 46.0926 20.8523 46.1281 20.8558V21.495C46.1068 21.4897 46.0579 21.4817 45.9816 21.4711C45.907 21.4586 45.828 21.4524 45.7445 21.4524C45.5457 21.4524 45.3681 21.4941 45.2119 21.5776C45.0574 21.6593 44.9349 21.7729 44.8443 21.9185C44.7555 22.0623 44.7112 22.2266 44.7112 22.4112V25H44.0826ZM48.4638 25.0852C48.0696 25.0852 47.7296 24.9982 47.4438 24.8242C47.1597 24.6484 46.9404 24.4034 46.7859 24.0891C46.6332 23.7731 46.5569 23.4055 46.5569 22.9865C46.5569 22.5675 46.6332 22.1982 46.7859 21.8786C46.9404 21.5572 47.1552 21.3068 47.4304 21.1275C47.7074 20.9464 48.0306 20.8558 48.3999 20.8558C48.613 20.8558 48.8234 20.8913 49.0311 20.9624C49.2389 21.0334 49.428 21.1488 49.5984 21.3086C49.7689 21.4666 49.9047 21.6761 50.0059 21.9371C50.1071 22.1982 50.1577 22.5195 50.1577 22.9013V23.1676H47.0043V22.6243H49.5185C49.5185 22.3935 49.4723 22.1875 49.38 22.0064C49.2895 21.8253 49.1598 21.6824 48.9912 21.5776C48.8243 21.4728 48.6272 21.4205 48.3999 21.4205C48.1495 21.4205 47.9329 21.4826 47.75 21.6069C47.5689 21.7294 47.4296 21.8892 47.3319 22.0863C47.2342 22.2834 47.1854 22.4947 47.1854 22.7202V23.0824C47.1854 23.3913 47.2387 23.6532 47.3452 23.8681C47.4535 24.0811 47.6036 24.2436 47.7953 24.3555C47.9871 24.4656 48.2099 24.5206 48.4638 24.5206C48.629 24.5206 48.7781 24.4975 48.9113 24.4513C49.0462 24.4034 49.1625 24.3324 49.2602 24.2383C49.3578 24.1424 49.4333 24.0234 49.4866 23.8814L50.0938 24.0518C50.0299 24.2578 49.9225 24.4389 49.7715 24.5952C49.6206 24.7496 49.4342 24.8704 49.2122 24.9574C48.9903 25.0426 48.7408 25.0852 48.4638 25.0852ZM52.3177 25.0959C52.0585 25.0959 51.8232 25.0471 51.6119 24.9494C51.4006 24.85 51.2328 24.707 51.1085 24.5206C50.9842 24.3324 50.9221 24.1051 50.9221 23.8388C50.9221 23.6044 50.9683 23.4144 51.0606 23.2688C51.1529 23.1214 51.2763 23.006 51.4308 22.9226C51.5853 22.8391 51.7557 22.777 51.9422 22.7362C52.1304 22.6935 52.3195 22.6598 52.5095 22.6349C52.758 22.603 52.9596 22.579 53.114 22.563C53.2703 22.5453 53.3839 22.516 53.4549 22.4751C53.5277 22.4343 53.5641 22.3633 53.5641 22.2621V22.2408C53.5641 21.978 53.4922 21.7738 53.3484 21.6282C53.2064 21.4826 52.9906 21.4098 52.7012 21.4098C52.4011 21.4098 52.1659 21.4755 51.9954 21.6069C51.825 21.7383 51.7051 21.8786 51.6359 22.0277L51.0393 21.8146C51.1458 21.5661 51.2879 21.3725 51.4654 21.234C51.6448 21.0937 51.8401 20.9961 52.0514 20.9411C52.2644 20.8842 52.4739 20.8558 52.6799 20.8558C52.8113 20.8558 52.9622 20.8718 53.1327 20.9038C53.3049 20.9339 53.4709 20.997 53.6307 21.0929C53.7923 21.1887 53.9264 21.3335 54.0329 21.527C54.1394 21.7205 54.1927 21.9798 54.1927 22.3047V25H53.5641V24.446H53.5322C53.4896 24.5348 53.4185 24.6298 53.3191 24.731C53.2197 24.8322 53.0874 24.9183 52.9223 24.9893C52.7571 25.0604 52.5556 25.0959 52.3177 25.0959ZM52.4136 24.5312C52.6622 24.5312 52.8717 24.4824 53.0421 24.3848C53.2144 24.2871 53.344 24.161 53.431 24.0066C53.5198 23.8521 53.5641 23.6896 53.5641 23.5192V22.9439C53.5375 22.9759 53.4789 23.0051 53.3884 23.0318C53.2996 23.0566 53.1966 23.0788 53.0794 23.0984C52.964 23.1161 52.8513 23.1321 52.7412 23.1463C52.6329 23.1587 52.545 23.1694 52.4775 23.1783C52.3141 23.1996 52.1614 23.2342 52.0194 23.2821C51.8791 23.3283 51.7655 23.3984 51.6785 23.4925C51.5933 23.5849 51.5506 23.7109 51.5506 23.8707C51.5506 24.0891 51.6314 24.2543 51.793 24.3661C51.9564 24.4762 52.1632 24.5312 52.4136 24.5312ZM55.3399 25V20.9091H55.9472V21.5483H56.0004C56.0857 21.3299 56.2233 21.1603 56.4133 21.0396C56.6032 20.9171 56.8314 20.8558 57.0977 20.8558C57.3676 20.8558 57.5922 20.9171 57.7716 21.0396C57.9527 21.1603 58.0938 21.3299 58.195 21.5483H58.2377C58.3424 21.337 58.4996 21.1692 58.7091 21.0449C58.9186 20.9189 59.1698 20.8558 59.4628 20.8558C59.8286 20.8558 60.1278 20.9703 60.3604 21.1994C60.593 21.4267 60.7093 21.7809 60.7093 22.2621V25H60.0807V22.2621C60.0807 21.9602 59.9981 21.7445 59.833 21.6149C59.6679 21.4853 59.4735 21.4205 59.2497 21.4205C58.9621 21.4205 58.7393 21.5075 58.5812 21.6815C58.4232 21.8537 58.3442 22.0721 58.3442 22.3366V25H57.705V22.1982C57.705 21.9656 57.6295 21.7782 57.4786 21.6362C57.3277 21.4924 57.1333 21.4205 56.8953 21.4205C56.732 21.4205 56.5793 21.464 56.4372 21.551C56.297 21.638 56.1833 21.7587 56.0963 21.9132C56.0111 22.0659 55.9685 22.2425 55.9685 22.4432V25H55.3399ZM62.487 19.5455V25H61.8585V19.5455H62.487ZM63.6383 25V20.9091H64.2668V25H63.6383ZM63.9579 20.2273C63.8354 20.2273 63.7297 20.1855 63.6409 20.1021C63.5539 20.0186 63.5104 19.9183 63.5104 19.8011C63.5104 19.6839 63.5539 19.5836 63.6409 19.5002C63.7297 19.4167 63.8354 19.375 63.9579 19.375C64.0804 19.375 64.1851 19.4167 64.2722 19.5002C64.3609 19.5836 64.4053 19.6839 64.4053 19.8011C64.4053 19.9183 64.3609 20.0186 64.2722 20.1021C64.1851 20.1855 64.0804 20.2273 63.9579 20.2273ZM66.0466 22.5391V25H65.4181V20.9091H66.0253V21.5483H66.0786C66.1744 21.3406 66.32 21.1737 66.5154 21.0476C66.7107 20.9197 66.9628 20.8558 67.2718 20.8558C67.5487 20.8558 67.7911 20.9126 67.9988 21.0263C68.2066 21.1381 68.3682 21.3086 68.4836 21.5376C68.599 21.7649 68.6567 22.0526 68.6567 22.4006V25H68.0281V22.4432C68.0281 22.1218 67.9447 21.8714 67.7778 21.6921C67.6109 21.511 67.3818 21.4205 67.0906 21.4205C66.89 21.4205 66.7107 21.464 66.5526 21.551C66.3964 21.638 66.273 21.7649 66.1824 21.9318C66.0919 22.0987 66.0466 22.3011 66.0466 22.5391ZM71.5205 25.0852C71.1263 25.0852 70.7863 24.9982 70.5004 24.8242C70.2163 24.6484 69.997 24.4034 69.8426 24.0891C69.6899 23.7731 69.6135 23.4055 69.6135 22.9865C69.6135 22.5675 69.6899 22.1982 69.8426 21.8786C69.997 21.5572 70.2119 21.3068 70.4871 21.1275C70.7641 20.9464 71.0872 20.8558 71.4565 20.8558C71.6696 20.8558 71.88 20.8913 72.0878 20.9624C72.2955 21.0334 72.4846 21.1488 72.6551 21.3086C72.8255 21.4666 72.9613 21.6761 73.0625 21.9371C73.1638 22.1982 73.2144 22.5195 73.2144 22.9013V23.1676H70.0609V22.6243H72.5752C72.5752 22.3935 72.529 22.1875 72.4367 22.0064C72.3461 21.8253 72.2165 21.6824 72.0478 21.5776C71.8809 21.4728 71.6838 21.4205 71.4565 21.4205C71.2062 21.4205 70.9896 21.4826 70.8067 21.6069C70.6256 21.7294 70.4862 21.8892 70.3885 22.0863C70.2909 22.2834 70.2421 22.4947 70.2421 22.7202V23.0824C70.2421 23.3913 70.2953 23.6532 70.4019 23.8681C70.5102 24.0811 70.6602 24.2436 70.852 24.3555C71.0437 24.4656 71.2666 24.5206 71.5205 24.5206C71.6856 24.5206 71.8347 24.4975 71.9679 24.4513C72.1028 24.4034 72.2191 24.3324 72.3168 24.2383C72.4145 24.1424 72.4899 24.0234 72.5432 23.8814L73.1504 24.0518C73.0865 24.2578 72.9791 24.4389 72.8282 24.5952C72.6772 24.7496 72.4908 24.8704 72.2689 24.9574C72.0469 25.0426 71.7975 25.0852 71.5205 25.0852ZM75.8964 19.5455H76.6527L78.1655 22.0916H78.2294L79.7422 19.5455H80.4986L78.5277 22.7521V25H77.8672V22.7521L75.8964 19.5455ZM82.351 25.0852C81.9817 25.0852 81.6576 24.9973 81.3789 24.8216C81.1019 24.6458 80.8853 24.3999 80.729 24.0838C80.5745 23.7678 80.4973 23.3984 80.4973 22.9759C80.4973 22.5497 80.5745 22.1777 80.729 21.8599C80.8853 21.5421 81.1019 21.2953 81.3789 21.1195C81.6576 20.9437 81.9817 20.8558 82.351 20.8558C82.7203 20.8558 83.0435 20.9437 83.3204 21.1195C83.5992 21.2953 83.8158 21.5421 83.9703 21.8599C84.1266 22.1777 84.2047 22.5497 84.2047 22.9759C84.2047 23.3984 84.1266 23.7678 83.9703 24.0838C83.8158 24.3999 83.5992 24.6458 83.3204 24.8216C83.0435 24.9973 82.7203 25.0852 82.351 25.0852ZM82.351 24.5206C82.6315 24.5206 82.8623 24.4487 83.0435 24.3049C83.2246 24.161 83.3586 23.9719 83.4456 23.7376C83.5326 23.5032 83.5761 23.2493 83.5761 22.9759C83.5761 22.7024 83.5326 22.4476 83.4456 22.2115C83.3586 21.9753 83.2246 21.7844 83.0435 21.6388C82.8623 21.4933 82.6315 21.4205 82.351 21.4205C82.0704 21.4205 81.8396 21.4933 81.6585 21.6388C81.4774 21.7844 81.3434 21.9753 81.2563 22.2115C81.1693 22.4476 81.1258 22.7024 81.1258 22.9759C81.1258 23.2493 81.1693 23.5032 81.2563 23.7376C81.3434 23.9719 81.4774 24.161 81.6585 24.3049C81.8396 24.4487 82.0704 24.5206 82.351 24.5206ZM87.7423 23.3274V20.9091H88.3708V25H87.7423V24.3075H87.6997C87.6038 24.5153 87.4546 24.6919 87.2522 24.8375C87.0498 24.9814 86.7941 25.0533 86.4852 25.0533C86.2295 25.0533 86.0022 24.9973 85.8034 24.8855C85.6045 24.7718 85.4482 24.6014 85.3346 24.3741C85.221 24.1451 85.1642 23.8565 85.1642 23.5085V20.9091H85.7927V23.4659C85.7927 23.7642 85.8762 24.0021 86.0431 24.1797C86.2117 24.3572 86.4266 24.446 86.6876 24.446C86.8438 24.446 87.0028 24.4061 87.1643 24.3262C87.3277 24.2463 87.4644 24.1238 87.5745 23.9586C87.6863 23.7935 87.7423 23.5831 87.7423 23.3274ZM89.5221 25V20.9091H90.1293V21.527H90.1719C90.2465 21.3246 90.3814 21.1603 90.5767 21.0343C90.7721 20.9082 90.9922 20.8452 91.2373 20.8452C91.2834 20.8452 91.3411 20.8461 91.4104 20.8478C91.4796 20.8496 91.532 20.8523 91.5675 20.8558V21.495C91.5462 21.4897 91.4974 21.4817 91.421 21.4711C91.3465 21.4586 91.2674 21.4524 91.184 21.4524C90.9851 21.4524 90.8076 21.4941 90.6513 21.5776C90.4968 21.6593 90.3743 21.7729 90.2838 21.9185C90.195 22.0623 90.1506 22.2266 90.1506 22.4112V25H89.5221ZM98.8325 19.5455V25H98.1933L95.221 20.7173H95.1677V25H94.5072V19.5455H95.1464L98.1294 23.8388H98.1826V19.5455H98.8325ZM101.784 25.0852C101.39 25.0852 101.05 24.9982 100.764 24.8242C100.48 24.6484 100.261 24.4034 100.106 24.0891C99.9535 23.7731 99.8772 23.4055 99.8772 22.9865C99.8772 22.5675 99.9535 22.1982 100.106 21.8786C100.261 21.5572 100.476 21.3068 100.751 21.1275C101.028 20.9464 101.351 20.8558 101.72 20.8558C101.933 20.8558 102.144 20.8913 102.351 20.9624C102.559 21.0334 102.748 21.1488 102.919 21.3086C103.089 21.4666 103.225 21.6761 103.326 21.9371C103.427 22.1982 103.478 22.5195 103.478 22.9013V23.1676H100.325V22.6243H102.839C102.839 22.3935 102.793 22.1875 102.7 22.0064C102.61 21.8253 102.48 21.6824 102.311 21.5776C102.145 21.4728 101.947 21.4205 101.72 21.4205C101.47 21.4205 101.253 21.4826 101.07 21.6069C100.889 21.7294 100.75 21.8892 100.652 22.0863C100.555 22.2834 100.506 22.4947 100.506 22.7202V23.0824C100.506 23.3913 100.559 23.6532 100.666 23.8681C100.774 24.0811 100.924 24.2436 101.116 24.3555C101.307 24.4656 101.53 24.5206 101.784 24.5206C101.949 24.5206 102.098 24.4975 102.232 24.4513C102.367 24.4034 102.483 24.3324 102.58 24.2383C102.678 24.1424 102.754 24.0234 102.807 23.8814L103.414 24.0518C103.35 24.2578 103.243 24.4389 103.092 24.5952C102.941 24.7496 102.754 24.8704 102.533 24.9574C102.311 25.0426 102.061 25.0852 101.784 25.0852ZM106.213 20.9091V21.4418H104.093V20.9091H106.213ZM104.711 19.929H105.34V23.8281C105.34 24.0057 105.365 24.1388 105.417 24.2276C105.47 24.3146 105.538 24.3732 105.619 24.4034C105.703 24.4318 105.791 24.446 105.883 24.446C105.952 24.446 106.009 24.4425 106.053 24.4354C106.098 24.4265 106.133 24.4194 106.16 24.4141L106.288 24.9787C106.245 24.9947 106.186 25.0107 106.109 25.0266C106.033 25.0444 105.936 25.0533 105.819 25.0533C105.642 25.0533 105.468 25.0151 105.297 24.9387C105.128 24.8624 104.988 24.7461 104.876 24.5898C104.766 24.4336 104.711 24.2365 104.711 23.9986V19.929ZM108.086 25L106.839 20.9091H107.5L108.384 24.0412H108.427L109.3 20.9091H109.971L110.834 24.0305H110.877L111.761 20.9091H112.422L111.175 25H110.557L109.662 21.8572H109.598L108.704 25H108.086ZM114.775 25.0852C114.406 25.0852 114.082 24.9973 113.803 24.8216C113.526 24.6458 113.31 24.3999 113.153 24.0838C112.999 23.7678 112.922 23.3984 112.922 22.9759C112.922 22.5497 112.999 22.1777 113.153 21.8599C113.31 21.5421 113.526 21.2953 113.803 21.1195C114.082 20.9437 114.406 20.8558 114.775 20.8558C115.145 20.8558 115.468 20.9437 115.745 21.1195C116.024 21.2953 116.24 21.5421 116.395 21.8599C116.551 22.1777 116.629 22.5497 116.629 22.9759C116.629 23.3984 116.551 23.7678 116.395 24.0838C116.24 24.3999 116.024 24.6458 115.745 24.8216C115.468 24.9973 115.145 25.0852 114.775 25.0852ZM114.775 24.5206C115.056 24.5206 115.287 24.4487 115.468 24.3049C115.649 24.161 115.783 23.9719 115.87 23.7376C115.957 23.5032 116 23.2493 116 22.9759C116 22.7024 115.957 22.4476 115.87 22.2115C115.783 21.9753 115.649 21.7844 115.468 21.6388C115.287 21.4933 115.056 21.4205 114.775 21.4205C114.495 21.4205 114.264 21.4933 114.083 21.6388C113.902 21.7844 113.768 21.9753 113.681 22.2115C113.594 22.4476 113.55 22.7024 113.55 22.9759C113.55 23.2493 113.594 23.5032 113.681 23.7376C113.768 23.9719 113.902 24.161 114.083 24.3049C114.264 24.4487 114.495 24.5206 114.775 24.5206ZM117.588 25V20.9091H118.196V21.527H118.238C118.313 21.3246 118.448 21.1603 118.643 21.0343C118.838 20.9082 119.059 20.8452 119.304 20.8452C119.35 20.8452 119.408 20.8461 119.477 20.8478C119.546 20.8496 119.598 20.8523 119.634 20.8558V21.495C119.613 21.4897 119.564 21.4817 119.487 21.4711C119.413 21.4586 119.334 21.4524 119.25 21.4524C119.052 21.4524 118.874 21.4941 118.718 21.5776C118.563 21.6593 118.441 21.7729 118.35 21.9185C118.261 22.0623 118.217 22.2266 118.217 22.4112V25H117.588ZM120.965 23.5085L120.954 22.7308H121.082L122.872 20.9091H123.65L121.743 22.8374H121.689L120.965 23.5085ZM120.379 25V19.5455H121.008V25H120.379ZM122.978 25L121.38 22.9759L121.828 22.5391L123.777 25H122.978Z" fill="#797595"/>
<rect width="32" height="32" fill="#0E63F4"/>
<path d="M12.2134 14.4934C12.0801 14.4801 11.9201 14.4801 11.7734 14.4934C8.60008 14.3867 6.08008 11.7867 6.08008 8.58675C6.08008 5.32008 8.72008 2.66675 12.0001 2.66675C15.2667 2.66675 17.9201 5.32008 17.9201 8.58675C17.9067 11.7867 15.3867 14.3867 12.2134 14.4934Z" stroke="white" stroke-width="1.5" stroke-linecap="round" stroke-linejoin="round"/>
<path d="M21.8801 5.33325C24.4668 5.33325 26.5468 7.42659 26.5468 9.99992C26.5468 12.5199 24.5468 14.5733 22.0535 14.6666C21.9468 14.6533 21.8268 14.6533 21.7068 14.6666" stroke="white" stroke-width="1.5" stroke-linecap="round" stroke-linejoin="round"/>
<path d="M5.54671 19.4133C2.32004 21.5733 2.32004 25.0933 5.54671 27.2399C9.21338 29.6933 15.2267 29.6933 18.8934 27.2399C22.12 25.0799 22.12 21.5599 18.8934 19.4133C15.24 16.9733 9.22671 16.9733 5.54671 19.4133Z" stroke="white" stroke-width="1.5" stroke-linecap="round" stroke-linejoin="round"/>
<path d="M24.4534 26.6667C25.4134 26.4667 26.32 26.0801 27.0667 25.5067C29.1467 23.9467 29.1467 21.3734 27.0667 19.8134C26.3334 19.2534 25.44 18.8801 24.4934 18.6667" stroke="white" stroke-width="1.5" stroke-linecap="round" stroke-linejoin="round"/>
</svg>
