<svg width="126" height="33" viewBox="0 0 126 33" fill="none" xmlns="http://www.w3.org/2000/svg">
<path d="M38 32H55.777" stroke="#0E63F4" stroke-width="0.635"/>
<path d="M44.6864 3.09091H46.9929V10.1754C46.9929 10.9709 46.8029 11.6669 46.4229 12.2635C46.0465 12.8601 45.5192 13.3253 44.8409 13.6591C44.1626 13.9893 43.3725 14.1545 42.4705 14.1545C41.565 14.1545 40.7731 13.9893 40.0948 13.6591C39.4165 13.3253 38.8892 12.8601 38.5128 12.2635C38.1364 11.6669 37.9482 10.9709 37.9482 10.1754V3.09091H40.2546V9.97834C40.2546 10.3938 40.3452 10.7631 40.5263 11.0863C40.7109 11.4094 40.9702 11.6634 41.304 11.848C41.6378 12.0327 42.0266 12.125 42.4705 12.125C42.918 12.125 43.3068 12.0327 43.6371 11.848C43.9709 11.6634 44.2283 11.4094 44.4094 11.0863C44.5941 10.7631 44.6864 10.3938 44.6864 9.97834V3.09091ZM54.8085 6.22834C54.7659 5.79865 54.583 5.46484 54.2599 5.22692C53.9367 4.98899 53.4981 4.87003 52.9442 4.87003C52.5677 4.87003 52.2499 4.9233 51.9907 5.02983C51.7314 5.13281 51.5326 5.27663 51.3941 5.46129C51.2591 5.64595 51.1917 5.85547 51.1917 6.08984C51.1846 6.28516 51.2254 6.45561 51.3142 6.60121C51.4065 6.7468 51.5326 6.87287 51.6924 6.9794C51.8522 7.08239 52.0368 7.17294 52.2464 7.25107C52.4559 7.32564 52.6796 7.38956 52.9175 7.44283L53.8976 7.6772C54.3735 7.78374 54.8103 7.92578 55.208 8.10334C55.6057 8.28089 55.9502 8.49929 56.2414 8.75852C56.5326 9.01776 56.7581 9.32315 56.9179 9.67472C57.0812 10.0263 57.1647 10.4293 57.1682 10.8839C57.1647 11.5515 56.9942 12.1303 56.6569 12.6204C56.3231 13.1069 55.8401 13.4851 55.208 13.755C54.5795 14.0213 53.8213 14.1545 52.9335 14.1545C52.0528 14.1545 51.2858 14.0195 50.6324 13.7496C49.9825 13.4798 49.4747 13.0803 49.1089 12.5511C48.7467 12.0185 48.5567 11.3597 48.539 10.5749H50.7709C50.7957 10.9407 50.9005 11.2461 51.0851 11.4911C51.2733 11.7326 51.5237 11.9155 51.8362 12.0398C52.1523 12.1605 52.5091 12.2209 52.9069 12.2209C53.2975 12.2209 53.6366 12.1641 53.9243 12.0504C54.2155 11.9368 54.441 11.7788 54.6008 11.5763C54.7606 11.3739 54.8405 11.1413 54.8405 10.8786C54.8405 10.6335 54.7677 10.4276 54.6221 10.2607C54.48 10.0937 54.2705 9.9517 53.9935 9.83452C53.7201 9.71733 53.3845 9.6108 52.9868 9.51491L51.7989 9.21662C50.8792 8.9929 50.153 8.64311 49.6203 8.16726C49.0876 7.69141 48.8231 7.05043 48.8266 6.24432C48.8231 5.58381 48.9988 5.00675 49.354 4.51314C49.7126 4.01953 50.2045 3.63423 50.8295 3.35724C51.4545 3.08026 52.1647 2.94176 52.9601 2.94176C53.7698 2.94176 54.4765 3.08026 55.0802 3.35724C55.6874 3.63423 56.1597 4.01953 56.4971 4.51314C56.8344 5.00675 57.0084 5.57848 57.0191 6.22834H54.8085ZM58.7196 14V3.09091H66.0705V4.99254H61.0261V7.59197H65.6923V9.49361H61.0261V12.0984H66.0918V14H58.7196ZM67.9042 14V3.09091H72.2082C73.032 3.09091 73.7352 3.23828 74.3176 3.53303C74.9035 3.82422 75.3492 4.23793 75.6546 4.77415C75.9635 5.30682 76.118 5.93359 76.118 6.65447C76.118 7.37891 75.9617 8.00213 75.6492 8.52415C75.3367 9.04261 74.884 9.44034 74.2909 9.71733C73.7014 9.99432 72.9877 10.1328 72.1496 10.1328H69.2678V8.27912H71.7767C72.2171 8.27912 72.5828 8.21875 72.874 8.09801C73.1652 7.97727 73.3818 7.79616 73.5239 7.55469C73.6695 7.31321 73.7423 7.01314 73.7423 6.65447C73.7423 6.29226 73.6695 5.98686 73.5239 5.73828C73.3818 5.4897 73.1634 5.30149 72.8687 5.17365C72.5775 5.04226 72.21 4.97656 71.7661 4.97656H70.2107V14H67.9042ZM73.7955 9.03551L76.5068 14H73.9607L71.308 9.03551H73.7955ZM79.4259 3.09091L82.0626 11.3793H82.1638L84.8058 3.09091H87.3627L83.602 14H80.6297L76.8637 3.09091H79.4259ZM88.6757 14V3.09091H96.0265V4.99254H90.9822V7.59197H95.6483V9.49361H90.9822V12.0984H96.0479V14H88.6757ZM97.8603 14V3.09091H102.164C102.988 3.09091 103.691 3.23828 104.274 3.53303C104.86 3.82422 105.305 4.23793 105.611 4.77415C105.92 5.30682 106.074 5.93359 106.074 6.65447C106.074 7.37891 105.918 8.00213 105.605 8.52415C105.293 9.04261 104.84 9.44034 104.247 9.71733C103.657 9.99432 102.944 10.1328 102.106 10.1328H99.2239V8.27912H101.733C102.173 8.27912 102.539 8.21875 102.83 8.09801C103.121 7.97727 103.338 7.79616 103.48 7.55469C103.626 7.31321 103.698 7.01314 103.698 6.65447C103.698 6.29226 103.626 5.98686 103.48 5.73828C103.338 5.4897 103.119 5.30149 102.825 5.17365C102.534 5.04226 102.166 4.97656 101.722 4.97656H100.167V14H97.8603ZM103.752 9.03551L106.463 14H103.917L101.264 9.03551H103.752ZM113.622 6.22834C113.579 5.79865 113.396 5.46484 113.073 5.22692C112.75 4.98899 112.312 4.87003 111.758 4.87003C111.381 4.87003 111.063 4.9233 110.804 5.02983C110.545 5.13281 110.346 5.27663 110.208 5.46129C110.073 5.64595 110.005 5.85547 110.005 6.08984C109.998 6.28516 110.039 6.45561 110.128 6.60121C110.22 6.7468 110.346 6.87287 110.506 6.9794C110.666 7.08239 110.85 7.17294 111.06 7.25107C111.269 7.32564 111.493 7.38956 111.731 7.44283L112.711 7.6772C113.187 7.78374 113.624 7.92578 114.021 8.10334C114.419 8.28089 114.764 8.49929 115.055 8.75852C115.346 9.01776 115.572 9.32315 115.731 9.67472C115.895 10.0263 115.978 10.4293 115.982 10.8839C115.978 11.5515 115.808 12.1303 115.47 12.6204C115.137 13.1069 114.654 13.4851 114.021 13.755C113.393 14.0213 112.635 14.1545 111.747 14.1545C110.866 14.1545 110.099 14.0195 109.446 13.7496C108.796 13.4798 108.288 13.0803 107.922 12.5511C107.56 12.0185 107.37 11.3597 107.352 10.5749H109.584C109.609 10.9407 109.714 11.2461 109.899 11.4911C110.087 11.7326 110.337 11.9155 110.65 12.0398C110.966 12.1605 111.323 12.2209 111.72 12.2209C112.111 12.2209 112.45 12.1641 112.738 12.0504C113.029 11.9368 113.254 11.7788 113.414 11.5763C113.574 11.3739 113.654 11.1413 113.654 10.8786C113.654 10.6335 113.581 10.4276 113.436 10.2607C113.294 10.0937 113.084 9.9517 112.807 9.83452C112.534 9.71733 112.198 9.6108 111.8 9.51491L110.612 9.21662C109.693 8.9929 108.966 8.64311 108.434 8.16726C107.901 7.69141 107.637 7.05043 107.64 6.24432C107.637 5.58381 107.812 5.00675 108.167 4.51314C108.526 4.01953 109.018 3.63423 109.643 3.35724C110.268 3.08026 110.978 2.94176 111.774 2.94176C112.583 2.94176 113.29 3.08026 113.894 3.35724C114.501 3.63423 114.973 4.01953 115.311 4.51314C115.648 5.00675 115.822 5.57848 115.833 6.22834H113.622ZM117.533 14V3.09091H124.884V4.99254H119.84V7.59197H124.506V9.49361H119.84V12.0984H124.905V14H117.533Z" fill="#0E63F4"/>
<path d="M41.6435 20.9091C41.6115 20.6392 41.4819 20.4297 41.2546 20.2805C41.0273 20.1314 40.7486 20.0568 40.4183 20.0568C40.1768 20.0568 39.9656 20.0959 39.7844 20.174C39.6051 20.2521 39.4648 20.3596 39.3636 20.4963C39.2642 20.633 39.2145 20.7884 39.2145 20.9624C39.2145 21.108 39.2491 21.2331 39.3184 21.3379C39.3894 21.4409 39.4799 21.527 39.59 21.5962C39.7001 21.6637 39.8155 21.7196 39.9363 21.764C40.057 21.8066 40.168 21.8413 40.2692 21.8679L40.8232 22.017C40.9652 22.0543 41.1232 22.1058 41.2972 22.1715C41.473 22.2372 41.6408 22.3269 41.8006 22.4405C41.9622 22.5524 42.0953 22.6962 42.2001 22.872C42.3049 23.0478 42.3572 23.2635 42.3572 23.5192C42.3572 23.8139 42.28 24.0803 42.1255 24.3182C41.9728 24.5561 41.7491 24.7452 41.4544 24.8855C41.1614 25.0257 40.8054 25.0959 40.3864 25.0959C39.9957 25.0959 39.6575 25.0328 39.3716 24.9068C39.0875 24.7807 38.8638 24.6049 38.7005 24.3794C38.5389 24.1539 38.4474 23.892 38.4261 23.5938H39.108C39.1257 23.7997 39.195 23.9702 39.3157 24.1051C39.4382 24.2383 39.5927 24.3377 39.7791 24.4034C39.9673 24.4673 40.1697 24.4993 40.3864 24.4993C40.6385 24.4993 40.8649 24.4585 41.0655 24.3768C41.2662 24.2933 41.4251 24.1779 41.5423 24.0305C41.6594 23.8814 41.718 23.7074 41.718 23.5085C41.718 23.3274 41.6674 23.18 41.5662 23.0664C41.465 22.9528 41.3319 22.8604 41.1667 22.7894C41.0016 22.7184 40.8232 22.6562 40.6314 22.603L39.9602 22.4112C39.5341 22.2887 39.1967 22.1138 38.9482 21.8865C38.6996 21.6593 38.5753 21.3619 38.5753 20.9943C38.5753 20.6889 38.6578 20.4226 38.823 20.1953C38.9899 19.9663 39.2136 19.7887 39.4941 19.6626C39.7765 19.5348 40.0916 19.4709 40.4396 19.4709C40.7912 19.4709 41.1037 19.5339 41.3771 19.66C41.6506 19.7843 41.8672 19.9547 42.027 20.1713C42.1886 20.388 42.2738 20.6339 42.2827 20.9091H41.6435ZM45.1371 20.9091V21.4418H43.0171V20.9091H45.1371ZM43.635 19.929H44.2635V23.8281C44.2635 24.0057 44.2893 24.1388 44.3408 24.2276C44.394 24.3146 44.4615 24.3732 44.5432 24.4034C44.6266 24.4318 44.7145 24.446 44.8069 24.446C44.8761 24.446 44.9329 24.4425 44.9773 24.4354C45.0217 24.4265 45.0572 24.4194 45.0839 24.4141L45.2117 24.9787C45.1691 24.9947 45.1096 25.0107 45.0332 25.0266C44.9569 25.0444 44.8601 25.0533 44.7429 25.0533C44.5654 25.0533 44.3914 25.0151 44.2209 24.9387C44.0522 24.8624 43.912 24.7461 43.8001 24.5898C43.69 24.4336 43.635 24.2365 43.635 23.9986V19.929ZM46.0826 25V20.9091H46.6899V21.527H46.7325C46.807 21.3246 46.942 21.1603 47.1373 21.0343C47.3326 20.9082 47.5528 20.8452 47.7978 20.8452C47.844 20.8452 47.9017 20.8461 47.9709 20.8478C48.0402 20.8496 48.0926 20.8523 48.1281 20.8558V21.495C48.1068 21.4897 48.0579 21.4817 47.9816 21.4711C47.907 21.4586 47.828 21.4524 47.7445 21.4524C47.5457 21.4524 47.3681 21.4941 47.2119 21.5776C47.0574 21.6593 46.9349 21.7729 46.8443 21.9185C46.7555 22.0623 46.7112 22.2266 46.7112 22.4112V25H46.0826ZM50.4638 25.0852C50.0696 25.0852 49.7296 24.9982 49.4438 24.8242C49.1597 24.6484 48.9404 24.4034 48.7859 24.0891C48.6332 23.7731 48.5569 23.4055 48.5569 22.9865C48.5569 22.5675 48.6332 22.1982 48.7859 21.8786C48.9404 21.5572 49.1552 21.3068 49.4304 21.1275C49.7074 20.9464 50.0306 20.8558 50.3999 20.8558C50.613 20.8558 50.8234 20.8913 51.0311 20.9624C51.2389 21.0334 51.428 21.1488 51.5984 21.3086C51.7689 21.4666 51.9047 21.6761 52.0059 21.9371C52.1071 22.1982 52.1577 22.5195 52.1577 22.9013V23.1676H49.0043V22.6243H51.5185C51.5185 22.3935 51.4723 22.1875 51.38 22.0064C51.2895 21.8253 51.1598 21.6824 50.9912 21.5776C50.8243 21.4728 50.6272 21.4205 50.3999 21.4205C50.1495 21.4205 49.9329 21.4826 49.75 21.6069C49.5689 21.7294 49.4296 21.8892 49.3319 22.0863C49.2342 22.2834 49.1854 22.4947 49.1854 22.7202V23.0824C49.1854 23.3913 49.2387 23.6532 49.3452 23.8681C49.4535 24.0811 49.6036 24.2436 49.7953 24.3555C49.9871 24.4656 50.2099 24.5206 50.4638 24.5206C50.629 24.5206 50.7781 24.4975 50.9113 24.4513C51.0462 24.4034 51.1625 24.3324 51.2602 24.2383C51.3578 24.1424 51.4333 24.0234 51.4866 23.8814L52.0938 24.0518C52.0299 24.2578 51.9225 24.4389 51.7715 24.5952C51.6206 24.7496 51.4342 24.8704 51.2122 24.9574C50.9903 25.0426 50.7408 25.0852 50.4638 25.0852ZM54.3177 25.0959C54.0585 25.0959 53.8232 25.0471 53.6119 24.9494C53.4006 24.85 53.2328 24.707 53.1085 24.5206C52.9842 24.3324 52.9221 24.1051 52.9221 23.8388C52.9221 23.6044 52.9683 23.4144 53.0606 23.2688C53.1529 23.1214 53.2763 23.006 53.4308 22.9226C53.5853 22.8391 53.7557 22.777 53.9422 22.7362C54.1304 22.6935 54.3195 22.6598 54.5095 22.6349C54.758 22.603 54.9596 22.579 55.114 22.563C55.2703 22.5453 55.3839 22.516 55.4549 22.4751C55.5277 22.4343 55.5641 22.3633 55.5641 22.2621V22.2408C55.5641 21.978 55.4922 21.7738 55.3484 21.6282C55.2064 21.4826 54.9906 21.4098 54.7012 21.4098C54.4011 21.4098 54.1659 21.4755 53.9954 21.6069C53.825 21.7383 53.7051 21.8786 53.6359 22.0277L53.0393 21.8146C53.1458 21.5661 53.2879 21.3725 53.4654 21.234C53.6448 21.0937 53.8401 20.9961 54.0514 20.9411C54.2644 20.8842 54.4739 20.8558 54.6799 20.8558C54.8113 20.8558 54.9622 20.8718 55.1327 20.9038C55.3049 20.9339 55.4709 20.997 55.6307 21.0929C55.7923 21.1887 55.9264 21.3335 56.0329 21.527C56.1394 21.7205 56.1927 21.9798 56.1927 22.3047V25H55.5641V24.446H55.5322C55.4896 24.5348 55.4185 24.6298 55.3191 24.731C55.2197 24.8322 55.0874 24.9183 54.9223 24.9893C54.7571 25.0604 54.5556 25.0959 54.3177 25.0959ZM54.4136 24.5312C54.6622 24.5312 54.8717 24.4824 55.0421 24.3848C55.2144 24.2871 55.344 24.161 55.431 24.0066C55.5198 23.8521 55.5641 23.6896 55.5641 23.5192V22.9439C55.5375 22.9759 55.4789 23.0051 55.3884 23.0318C55.2996 23.0566 55.1966 23.0788 55.0794 23.0984C54.964 23.1161 54.8513 23.1321 54.7412 23.1463C54.6329 23.1587 54.545 23.1694 54.4775 23.1783C54.3141 23.1996 54.1614 23.2342 54.0194 23.2821C53.8791 23.3283 53.7655 23.3984 53.6785 23.4925C53.5933 23.5849 53.5506 23.7109 53.5506 23.8707C53.5506 24.0891 53.6314 24.2543 53.793 24.3661C53.9564 24.4762 54.1632 24.5312 54.4136 24.5312ZM57.3399 25V20.9091H57.9472V21.5483H58.0004C58.0857 21.3299 58.2233 21.1603 58.4133 21.0396C58.6032 20.9171 58.8314 20.8558 59.0977 20.8558C59.3676 20.8558 59.5922 20.9171 59.7716 21.0396C59.9527 21.1603 60.0938 21.3299 60.195 21.5483H60.2377C60.3424 21.337 60.4996 21.1692 60.7091 21.0449C60.9186 20.9189 61.1698 20.8558 61.4628 20.8558C61.8286 20.8558 62.1278 20.9703 62.3604 21.1994C62.593 21.4267 62.7093 21.7809 62.7093 22.2621V25H62.0807V22.2621C62.0807 21.9602 61.9981 21.7445 61.833 21.6149C61.6679 21.4853 61.4735 21.4205 61.2497 21.4205C60.9621 21.4205 60.7393 21.5075 60.5812 21.6815C60.4232 21.8537 60.3442 22.0721 60.3442 22.3366V25H59.705V22.1982C59.705 21.9656 59.6295 21.7782 59.4786 21.6362C59.3277 21.4924 59.1333 21.4205 58.8953 21.4205C58.732 21.4205 58.5793 21.464 58.4372 21.551C58.297 21.638 58.1833 21.7587 58.0963 21.9132C58.0111 22.0659 57.9685 22.2425 57.9685 22.4432V25H57.3399ZM64.487 19.5455V25H63.8585V19.5455H64.487ZM65.6383 25V20.9091H66.2668V25H65.6383ZM65.9579 20.2273C65.8354 20.2273 65.7297 20.1855 65.6409 20.1021C65.5539 20.0186 65.5104 19.9183 65.5104 19.8011C65.5104 19.6839 65.5539 19.5836 65.6409 19.5002C65.7297 19.4167 65.8354 19.375 65.9579 19.375C66.0804 19.375 66.1851 19.4167 66.2722 19.5002C66.3609 19.5836 66.4053 19.6839 66.4053 19.8011C66.4053 19.9183 66.3609 20.0186 66.2722 20.1021C66.1851 20.1855 66.0804 20.2273 65.9579 20.2273ZM68.0466 22.5391V25H67.4181V20.9091H68.0253V21.5483H68.0786C68.1744 21.3406 68.32 21.1737 68.5154 21.0476C68.7107 20.9197 68.9628 20.8558 69.2718 20.8558C69.5487 20.8558 69.7911 20.9126 69.9988 21.0263C70.2066 21.1381 70.3682 21.3086 70.4836 21.5376C70.599 21.7649 70.6567 22.0526 70.6567 22.4006V25H70.0281V22.4432C70.0281 22.1218 69.9447 21.8714 69.7778 21.6921C69.6109 21.511 69.3818 21.4205 69.0906 21.4205C68.89 21.4205 68.7107 21.464 68.5526 21.551C68.3964 21.638 68.273 21.7649 68.1824 21.9318C68.0919 22.0987 68.0466 22.3011 68.0466 22.5391ZM73.5205 25.0852C73.1263 25.0852 72.7863 24.9982 72.5004 24.8242C72.2163 24.6484 71.997 24.4034 71.8426 24.0891C71.6899 23.7731 71.6135 23.4055 71.6135 22.9865C71.6135 22.5675 71.6899 22.1982 71.8426 21.8786C71.997 21.5572 72.2119 21.3068 72.4871 21.1275C72.7641 20.9464 73.0872 20.8558 73.4565 20.8558C73.6696 20.8558 73.88 20.8913 74.0878 20.9624C74.2955 21.0334 74.4846 21.1488 74.6551 21.3086C74.8255 21.4666 74.9613 21.6761 75.0625 21.9371C75.1638 22.1982 75.2144 22.5195 75.2144 22.9013V23.1676H72.0609V22.6243H74.5752C74.5752 22.3935 74.529 22.1875 74.4367 22.0064C74.3461 21.8253 74.2165 21.6824 74.0478 21.5776C73.8809 21.4728 73.6838 21.4205 73.4565 21.4205C73.2062 21.4205 72.9896 21.4826 72.8067 21.6069C72.6256 21.7294 72.4862 21.8892 72.3885 22.0863C72.2909 22.2834 72.2421 22.4947 72.2421 22.7202V23.0824C72.2421 23.3913 72.2953 23.6532 72.4019 23.8681C72.5102 24.0811 72.6602 24.2436 72.852 24.3555C73.0437 24.4656 73.2666 24.5206 73.5205 24.5206C73.6856 24.5206 73.8347 24.4975 73.9679 24.4513C74.1028 24.4034 74.2191 24.3324 74.3168 24.2383C74.4145 24.1424 74.4899 24.0234 74.5432 23.8814L75.1504 24.0518C75.0865 24.2578 74.9791 24.4389 74.8282 24.5952C74.6772 24.7496 74.4908 24.8704 74.2689 24.9574C74.0469 25.0426 73.7975 25.0852 73.5205 25.0852ZM77.8964 19.5455H78.6527L80.1655 22.0916H80.2294L81.7422 19.5455H82.4986L80.5277 22.7521V25H79.8672V22.7521L77.8964 19.5455ZM84.351 25.0852C83.9817 25.0852 83.6576 24.9973 83.3789 24.8216C83.1019 24.6458 82.8853 24.3999 82.729 24.0838C82.5745 23.7678 82.4973 23.3984 82.4973 22.9759C82.4973 22.5497 82.5745 22.1777 82.729 21.8599C82.8853 21.5421 83.1019 21.2953 83.3789 21.1195C83.6576 20.9437 83.9817 20.8558 84.351 20.8558C84.7203 20.8558 85.0435 20.9437 85.3204 21.1195C85.5992 21.2953 85.8158 21.5421 85.9703 21.8599C86.1266 22.1777 86.2047 22.5497 86.2047 22.9759C86.2047 23.3984 86.1266 23.7678 85.9703 24.0838C85.8158 24.3999 85.5992 24.6458 85.3204 24.8216C85.0435 24.9973 84.7203 25.0852 84.351 25.0852ZM84.351 24.5206C84.6315 24.5206 84.8623 24.4487 85.0435 24.3049C85.2246 24.161 85.3586 23.9719 85.4456 23.7376C85.5326 23.5032 85.5761 23.2493 85.5761 22.9759C85.5761 22.7024 85.5326 22.4476 85.4456 22.2115C85.3586 21.9753 85.2246 21.7844 85.0435 21.6388C84.8623 21.4933 84.6315 21.4205 84.351 21.4205C84.0704 21.4205 83.8396 21.4933 83.6585 21.6388C83.4774 21.7844 83.3434 21.9753 83.2563 22.2115C83.1693 22.4476 83.1258 22.7024 83.1258 22.9759C83.1258 23.2493 83.1693 23.5032 83.2563 23.7376C83.3434 23.9719 83.4774 24.161 83.6585 24.3049C83.8396 24.4487 84.0704 24.5206 84.351 24.5206ZM89.7423 23.3274V20.9091H90.3708V25H89.7423V24.3075H89.6997C89.6038 24.5153 89.4546 24.6919 89.2522 24.8375C89.0498 24.9814 88.7941 25.0533 88.4852 25.0533C88.2295 25.0533 88.0022 24.9973 87.8034 24.8855C87.6045 24.7718 87.4482 24.6014 87.3346 24.3741C87.221 24.1451 87.1642 23.8565 87.1642 23.5085V20.9091H87.7927V23.4659C87.7927 23.7642 87.8762 24.0021 88.0431 24.1797C88.2117 24.3572 88.4266 24.446 88.6876 24.446C88.8438 24.446 89.0028 24.4061 89.1643 24.3262C89.3277 24.2463 89.4644 24.1238 89.5745 23.9586C89.6863 23.7935 89.7423 23.5831 89.7423 23.3274ZM91.5221 25V20.9091H92.1293V21.527H92.1719C92.2465 21.3246 92.3814 21.1603 92.5767 21.0343C92.7721 20.9082 92.9922 20.8452 93.2373 20.8452C93.2834 20.8452 93.3411 20.8461 93.4104 20.8478C93.4796 20.8496 93.532 20.8523 93.5675 20.8558V21.495C93.5462 21.4897 93.4974 21.4817 93.421 21.4711C93.3465 21.4586 93.2674 21.4524 93.184 21.4524C92.9851 21.4524 92.8076 21.4941 92.6513 21.5776C92.4968 21.6593 92.3743 21.7729 92.2838 21.9185C92.195 22.0623 92.1506 22.2266 92.1506 22.4112V25H91.5221ZM100.832 19.5455V25H100.193L97.221 20.7173H97.1677V25H96.5072V19.5455H97.1464L100.129 23.8388H100.183V19.5455H100.832ZM103.784 25.0852C103.39 25.0852 103.05 24.9982 102.764 24.8242C102.48 24.6484 102.261 24.4034 102.106 24.0891C101.954 23.7731 101.877 23.4055 101.877 22.9865C101.877 22.5675 101.954 22.1982 102.106 21.8786C102.261 21.5572 102.476 21.3068 102.751 21.1275C103.028 20.9464 103.351 20.8558 103.72 20.8558C103.933 20.8558 104.144 20.8913 104.351 20.9624C104.559 21.0334 104.748 21.1488 104.919 21.3086C105.089 21.4666 105.225 21.6761 105.326 21.9371C105.427 22.1982 105.478 22.5195 105.478 22.9013V23.1676H102.325V22.6243H104.839C104.839 22.3935 104.793 22.1875 104.7 22.0064C104.61 21.8253 104.48 21.6824 104.311 21.5776C104.145 21.4728 103.947 21.4205 103.72 21.4205C103.47 21.4205 103.253 21.4826 103.07 21.6069C102.889 21.7294 102.75 21.8892 102.652 22.0863C102.555 22.2834 102.506 22.4947 102.506 22.7202V23.0824C102.506 23.3913 102.559 23.6532 102.666 23.8681C102.774 24.0811 102.924 24.2436 103.116 24.3555C103.307 24.4656 103.53 24.5206 103.784 24.5206C103.949 24.5206 104.098 24.4975 104.232 24.4513C104.367 24.4034 104.483 24.3324 104.58 24.2383C104.678 24.1424 104.754 24.0234 104.807 23.8814L105.414 24.0518C105.35 24.2578 105.243 24.4389 105.092 24.5952C104.941 24.7496 104.754 24.8704 104.533 24.9574C104.311 25.0426 104.061 25.0852 103.784 25.0852ZM108.213 20.9091V21.4418H106.093V20.9091H108.213ZM106.711 19.929H107.34V23.8281C107.34 24.0057 107.365 24.1388 107.417 24.2276C107.47 24.3146 107.538 24.3732 107.619 24.4034C107.703 24.4318 107.791 24.446 107.883 24.446C107.952 24.446 108.009 24.4425 108.053 24.4354C108.098 24.4265 108.133 24.4194 108.16 24.4141L108.288 24.9787C108.245 24.9947 108.186 25.0107 108.109 25.0266C108.033 25.0444 107.936 25.0533 107.819 25.0533C107.642 25.0533 107.468 25.0151 107.297 24.9387C107.128 24.8624 106.988 24.7461 106.876 24.5898C106.766 24.4336 106.711 24.2365 106.711 23.9986V19.929ZM110.086 25L108.839 20.9091H109.5L110.384 24.0412H110.427L111.3 20.9091H111.971L112.834 24.0305H112.877L113.761 20.9091H114.422L113.175 25H112.557L111.662 21.8572H111.598L110.704 25H110.086ZM116.775 25.0852C116.406 25.0852 116.082 24.9973 115.803 24.8216C115.526 24.6458 115.31 24.3999 115.153 24.0838C114.999 23.7678 114.922 23.3984 114.922 22.9759C114.922 22.5497 114.999 22.1777 115.153 21.8599C115.31 21.5421 115.526 21.2953 115.803 21.1195C116.082 20.9437 116.406 20.8558 116.775 20.8558C117.145 20.8558 117.468 20.9437 117.745 21.1195C118.024 21.2953 118.24 21.5421 118.395 21.8599C118.551 22.1777 118.629 22.5497 118.629 22.9759C118.629 23.3984 118.551 23.7678 118.395 24.0838C118.24 24.3999 118.024 24.6458 117.745 24.8216C117.468 24.9973 117.145 25.0852 116.775 25.0852ZM116.775 24.5206C117.056 24.5206 117.287 24.4487 117.468 24.3049C117.649 24.161 117.783 23.9719 117.87 23.7376C117.957 23.5032 118 23.2493 118 22.9759C118 22.7024 117.957 22.4476 117.87 22.2115C117.783 21.9753 117.649 21.7844 117.468 21.6388C117.287 21.4933 117.056 21.4205 116.775 21.4205C116.495 21.4205 116.264 21.4933 116.083 21.6388C115.902 21.7844 115.768 21.9753 115.681 22.2115C115.594 22.4476 115.55 22.7024 115.55 22.9759C115.55 23.2493 115.594 23.5032 115.681 23.7376C115.768 23.9719 115.902 24.161 116.083 24.3049C116.264 24.4487 116.495 24.5206 116.775 24.5206ZM119.588 25V20.9091H120.196V21.527H120.238C120.313 21.3246 120.448 21.1603 120.643 21.0343C120.838 20.9082 121.059 20.8452 121.304 20.8452C121.35 20.8452 121.408 20.8461 121.477 20.8478C121.546 20.8496 121.598 20.8523 121.634 20.8558V21.495C121.613 21.4897 121.564 21.4817 121.487 21.4711C121.413 21.4586 121.334 21.4524 121.25 21.4524C121.052 21.4524 120.874 21.4941 120.718 21.5776C120.563 21.6593 120.441 21.7729 120.35 21.9185C120.261 22.0623 120.217 22.2266 120.217 22.4112V25H119.588ZM122.965 23.5085L122.954 22.7308H123.082L124.872 20.9091H125.65L123.743 22.8374H123.689L122.965 23.5085ZM122.379 25V19.5455H123.008V25H122.379ZM124.978 25L123.38 22.9759L123.828 22.5391L125.777 25H124.978Z" fill="#797595"/>
<path d="M0 0H32V32H0V0Z" fill="#0E63F4"/>
<path d="M13.1601 14.87C13.0601 14.86 12.9401 14.86 12.8301 14.87C10.4501 14.79 8.56006 12.84 8.56006 10.44C8.56006 7.99 10.5401 6 13.0001 6C15.4501 6 17.4401 7.99 17.4401 10.44C17.4301 12.84 15.5401 14.79 13.1601 14.87Z" stroke="white" stroke-width="1.5" stroke-linecap="round" stroke-linejoin="round"/>
<path d="M20.41 8C22.35 8 23.91 9.57 23.91 11.5C23.91 13.39 22.41 14.93 20.54 15C20.46 14.99 20.37 14.99 20.28 15" stroke="white" stroke-width="1.5" stroke-linecap="round" stroke-linejoin="round"/>
<path d="M8.15997 18.56C5.73997 20.18 5.73997 22.82 8.15997 24.43C10.91 26.27 15.42 26.27 18.17 24.43C20.59 22.81 20.59 20.17 18.17 18.56C15.43 16.73 10.92 16.73 8.15997 18.56Z" stroke="white" stroke-width="1.5" stroke-linecap="round" stroke-linejoin="round"/>
<path d="M22.3401 24C23.0601 23.85 23.7401 23.56 24.3001 23.13C25.8601 21.96 25.8601 20.03 24.3001 18.86C23.7501 18.44 23.0801 18.16 22.3701 18" stroke="white" stroke-width="1.5" stroke-linecap="round" stroke-linejoin="round"/>
</svg>
